HIERARCHY
ROOT Hips
{
  OFFSET 0.0000 94.0000 0.0000
  CHANNELS 6 Xposition Yposition Zposition Yrotation Xrotation Zrotation
  JOINT Spine
  {
    OFFSET 0.0000 12.9947 0.0000
    CHANNELS 3 Yrotation Xrotation Zrotation
    JOINT Spine1
    {
      OFFSET 12.7099 0.0000 0.0000
      CHANNELS 3 Yrotation Xrotation Zrotation
      JOINT Spine2
      {
        OFFSET 12.7829 0.0000 0.0000
        CHANNELS 3 Yrotation Xrotation Zrotation
        JOINT LeftShoulder
        {
          OFFSET 10.4351 -7.0401 1.9147
          CHANNELS 3 Yrotation Xrotation Zrotation
          JOINT LeftArm
          {
            OFFSET 13.4599 0.0000 0.0000
            CHANNELS 3 Yrotation Xrotation Zrotation
            JOINT LeftForeArm
            {
              OFFSET 26.1001 0.0000 0.0001
              CHANNELS 3 Yrotation Xrotation Zrotation
              JOINT LeftHand
              {
                OFFSET 28.9001 0.0000 0.0000
                CHANNELS 3 Yrotation Xrotation Zrotation
                JOINT LeftInHandIndex
                {
                  OFFSET 2.6469 -0.1030 1.6042
                  CHANNELS 3 Yrotation Xrotation Zrotation
                  JOINT LeftHandIndex1
                  {
                    OFFSET 5.4270 0.0000 0.9569
                    CHANNELS 3 Yrotation Xrotation Zrotation
                    JOINT LeftHandIndex2
                    {
                      OFFSET 4.5806 0.0000 0.0000
                      CHANNELS 3 Yrotation Xrotation Zrotation
                      JOINT LeftHandIndex3
                      {
                        OFFSET 2.8181 -0.0001 0.0000
                        CHANNELS 3 Yrotation Xrotation Zrotation
                        End Site
                        {
                          OFFSET 1.4090 0.0000 0.0000
                        }
                      }
                    }
                  }
                }
                JOINT LeftInHandMiddle
                {
                  OFFSET 2.7689 -0.1030 0.5450
                  CHANNELS 3 Yrotation Xrotation Zrotation
                  JOINT LeftHandMiddle1
                  {
                    OFFSET 5.3677 0.0000 0.0000
                    CHANNELS 3 Yrotation Xrotation Zrotation
                    JOINT LeftHandMiddle2
                    {
                      OFFSET 4.7024 0.0000 0.0000
                      CHANNELS 3 Yrotation Xrotation Zrotation
                      JOINT LeftHandMiddle3
                      {
                        OFFSET 3.1016 0.0000 0.0000
                        CHANNELS 3 Yrotation Xrotation Zrotation
                        End Site
                        {
                          OFFSET 1.5508 0.0000 0.0000
                        }
                      }
                    }
                  }
                }
                JOINT LeftInHandPinky
                {
                  OFFSET 2.4891 -0.1030 -1.4884
                  CHANNELS 3 Yrotation Xrotation Zrotation
                  JOINT LeftHandPinky1
                  {
                    OFFSET 4.5290 0.0000 -1.6484
                    CHANNELS 3 Yrotation Xrotation Zrotation
                    JOINT LeftHandPinky2
                    {
                      OFFSET 3.5541 0.0000 0.0000
                      CHANNELS 3 Yrotation Xrotation Zrotation
                      JOINT LeftHandPinky3
                      {
                        OFFSET 2.2340 0.0000 0.0000
                        CHANNELS 3 Yrotation Xrotation Zrotation
                        End Site
                        {
                          OFFSET 1.1170 0.0000 0.0000
                        }
                      }
                    }
                  }
                }
                JOINT LeftInHandRing
                {
                  OFFSET 2.7444 -0.1030 -0.5478
                  CHANNELS 3 Yrotation Xrotation Zrotation
                  JOINT LeftHandRing1
                  {
                    OFFSET 5.0624 0.0000 -0.8927
                    CHANNELS 3 Yrotation Xrotation Zrotation
                    JOINT LeftHandRing2
                    {
                      OFFSET 4.3923 0.0000 0.0000
                      CHANNELS 3 Yrotation Xrotation Zrotation
                      JOINT LeftHandRing3
                      {
                        OFFSET 2.8327 -0.0001 0.0000
                        CHANNELS 3 Yrotation Xrotation Zrotation
                        End Site
                        {
                          OFFSET 1.4163 0.0000 0.0000
                        }
                      }
                    }
                  }
                }
                JOINT LeftHandThumb1
                {
                  OFFSET 2.0791 -0.0946 2.7863
                  CHANNELS 3 Yrotation Xrotation Zrotation
                  JOINT LeftHandThumb2
                  {
                    OFFSET 3.9619 0.0000 0.0000
                    CHANNELS 3 Yrotation Xrotation Zrotation
                    JOINT LeftHandThumb3
                    {
                      OFFSET 3.0072 0.0000 0.0000
                      CHANNELS 3 Yrotation Xrotation Zrotation
                      End Site
                      {
                        OFFSET 1.7295 0.0000 0.0000
                      }
                    }
                  }
                }
              }
            }
          }
        }
        JOINT Neck
        {
          OFFSET 18.2093 0.0000 0.0000
          CHANNELS 3 Yrotation Xrotation Zrotation
          JOINT Head
          {
            OFFSET 11.0335 0.0000 0.0000
            CHANNELS 3 Yrotation Xrotation Zrotation
            End Site
            {
              OFFSET 22.0670 0.0000 0.0000
            }
          }
        }
        JOINT RightShoulder
        {
          OFFSET 10.4351 7.0401 1.9147
          CHANNELS 3 Yrotation Xrotation Zrotation
          JOINT RightArm
          {
            OFFSET 13.4599 0.0001 0.0000
            CHANNELS 3 Yrotation Xrotation Zrotation
            JOINT RightForeArm
            {
              OFFSET 26.1001 0.0001 0.0000
              CHANNELS 3 Yrotation Xrotation Zrotation
              JOINT RightHand
              {
                OFFSET 28.9001 0.0001 0.0001
                CHANNELS 3 Yrotation Xrotation Zrotation
                JOINT RightInHandIndex
                {
                  OFFSET 2.6470 -0.1029 -1.6042
                  CHANNELS 3 Yrotation Xrotation Zrotation
                  JOINT RightHandIndex1
                  {
                    OFFSET 5.4271 0.0001 -0.9569
                    CHANNELS 3 Yrotation Xrotation Zrotation
                    JOINT RightHandIndex2
                    {
                      OFFSET 4.5805 0.0001 0.0000
                      CHANNELS 3 Yrotation Xrotation Zrotation
                      JOINT RightHandIndex3
                      {
                        OFFSET 2.8181 0.0001 0.0000
                        CHANNELS 3 Yrotation Xrotation Zrotation
                        End Site
                        {
                          OFFSET 1.4091 0.0000 0.0000
                        }
                      }
                    }
                  }
                }
                JOINT RightInHandMiddle
                {
                  OFFSET 2.7689 -0.1029 -0.5450
                  CHANNELS 3 Yrotation Xrotation Zrotation
                  JOINT RightHandMiddle1
                  {
                    OFFSET 5.3677 0.0001 0.0000
                    CHANNELS 3 Yrotation Xrotation Zrotation
                    JOINT RightHandMiddle2
                    {
                      OFFSET 4.7024 0.0001 0.0000
                      CHANNELS 3 Yrotation Xrotation Zrotation
                      JOINT RightHandMiddle3
                      {
                        OFFSET 3.1016 0.0001 0.0000
                        CHANNELS 3 Yrotation Xrotation Zrotation
                        End Site
                        {
                          OFFSET 1.5508 0.0001 0.0000
                        }
                      }
                    }
                  }
                }
                JOINT RightInHandPinky
                {
                  OFFSET 2.4892 -0.1029 1.4884
                  CHANNELS 3 Yrotation Xrotation Zrotation
                  JOINT RightHandPinky1
                  {
                    OFFSET 4.5290 0.0002 1.6484
                    CHANNELS 3 Yrotation Xrotation Zrotation
                    JOINT RightHandPinky2
                    {
                      OFFSET 3.5541 0.0000 0.0000
                      CHANNELS 3 Yrotation Xrotation Zrotation
                      JOINT RightHandPinky3
                      {
                        OFFSET 2.2340 0.0001 0.0000
                        CHANNELS 3 Yrotation Xrotation Zrotation
                        End Site
                        {
                          OFFSET 1.1170 0.0001 0.0000
                        }
                      }
                    }
                  }
                }
                JOINT RightInHandRing
                {
                  OFFSET 2.7444 -0.1029 0.5478
                  CHANNELS 3 Yrotation Xrotation Zrotation
                  JOINT RightHandRing1
                  {
                    OFFSET 5.0624 0.0002 0.8927
                    CHANNELS 3 Yrotation Xrotation Zrotation
                    JOINT RightHandRing2
                    {
                      OFFSET 4.3922 0.0001 0.0000
                      CHANNELS 3 Yrotation Xrotation Zrotation
                      JOINT RightHandRing3
                      {
                        OFFSET 2.8327 0.0001 0.0000
                        CHANNELS 3 Yrotation Xrotation Zrotation
                        End Site
                        {
                          OFFSET 1.4163 0.0000 0.0000
                        }
                      }
                    }
                  }
                }
                JOINT RightHandThumb1
                {
                  OFFSET 2.0791 -0.0945 -2.7863
                  CHANNELS 3 Yrotation Xrotation Zrotation
                  JOINT RightHandThumb2
                  {
                    OFFSET 3.9619 0.0001 0.0000
                    CHANNELS 3 Yrotation Xrotation Zrotation
                    JOINT RightHandThumb3
                    {
                      OFFSET 3.0072 0.0001 0.0000
                      CHANNELS 3 Yrotation Xrotation Zrotation
                      End Site
                      {
                        OFFSET 1.7295 0.0000 0.0000
                      }
                    }
                  }
                }
              }
            }
          }
        }
      }
    }
  }
  JOINT LeftUpLeg
  {
    OFFSET 8.1000 0.0000 0.0000
    CHANNELS 3 Yrotation Xrotation Zrotation
    JOINT LeftLeg
    {
      OFFSET 43.2000 0.0000 0.0000
      CHANNELS 3 Yrotation Xrotation Zrotation
      JOINT LeftFoot
      {
        OFFSET 43.3000 0.0000 0.0000
        CHANNELS 3 Yrotation Xrotation Zrotation
        JOINT LeftToeBase
        {
          OFFSET 14.5727 0.0000 0.0000
          CHANNELS 3 Yrotation Xrotation Zrotation
          End Site
          {
            OFFSET 7.2863 0.0000 0.0000
          }
        }
      }
    }
  }
  JOINT RightUpLeg
  {
    OFFSET -8.1000 0.0000 0.0000
    CHANNELS 3 Yrotation Xrotation Zrotation
    JOINT RightLeg
    {
      OFFSET 43.2000 0.0000 0.0000
      CHANNELS 3 Yrotation Xrotation Zrotation
      JOINT RightFoot
      {
        OFFSET 43.3000 -0.0626 0.0000
        CHANNELS 3 Yrotation Xrotation Zrotation
        JOINT RightToeBase
        {
          OFFSET 14.5727 0.0000 0.0000
          CHANNELS 3 Yrotation Xrotation Zrotation
          End Site
          {
            OFFSET 7.2864 0.0000 0.0000
          }
        }
      }
    }
  }
}
MOTION
Frames: 8
Frame Time: 0.04
-12.4398 120.2671 -139.7381 17.0363 4.3494 5.1536 0.0000 0.0000 90.0000 0.0000 0.0000 0.0000 0.0000 -28.6655 0.0000 0.0000 0.0000 -90.0000 -68.5810 37.3687 -86.7944 -79.8621 0.0000 0.0000 0.0000 0.0000 0.0000 0.0024 1.2310 0.2171 -8.2881 0.5561 -17.9917 0.0006 0.0002 -17.9988 -0.0008 0.0000 -18.0016 0.0000 0.0000 0.0000 -5.1372 -1.6664 -17.9253 -0.0001 0.0000 -18.0001 -0.0035 -0.0010 -18.0000 0.5905 -5.8773 -5.1793 11.2007 -13.4477 -16.1482 -0.0001 -0.0003 -18.0000 0.0000 0.0000 -17.9992 0.1281 -2.7201 -2.5537 1.3567 -8.1103 -16.9813 0.0001 0.0000 -17.9990 -0.0035 -0.0011 -18.0010 -51.5734 53.9498 -31.5004 6.3507 0.3529 -6.3509 6.3509 0.3526 -6.3510 0.0000 0.0000 0.0000 15.0697 17.1731 -92.6588 180.0000 0.0000 89.9999 66.5603 -28.1782 -68.3600 74.5916 -0.0001 0.0000 0.0000 0.0000 0.0000 -0.0024 -1.2310 0.2172 8.2881 -0.5563 -17.9918 -0.0003 -0.0001 -17.9993 178.0982 0.6179 17.9904 -0.0001 0.0000 0.0001 5.1372 1.6664 -17.9253 0.0000 0.0000 -18.0000 178.0978 0.6179 17.9897 -0.5906 5.8773 -5.1799 -11.2007 13.4479 -16.1469 -0.0002 -0.0001 -17.9992 178.0983 0.6180 17.9922 -0.1281 2.7201 -2.5536 -1.3567 8.1101 -16.9812 0.0000 0.0000 -17.9993 178.0978 0.6179 17.9904 51.5729 -53.9501 -31.5001 -6.3505 -0.3527 -6.3507 -6.3510 -0.3527 -6.3510 23.7452 -45.0538 -94.9932 90.0650 0.0000 0.0826 295.2681 90.0000 0.0000 0.5011 -0.2005 21.8051 -37.0622 -52.7359 -113.2379 98.9725 0.0001 0.0000 295.3508 90.0000 0.0000 0.0847 -0.0333 21.4774 
-13.8841 117.7704 -140.0379 12.8414 5.9096 3.3527 0.0000 0.0000 90.0000 0.0000 0.0000 0.0000 0.0000 -25.8185 0.0000 0.0000 0.0000 -90.0000 -62.3598 36.0134 -77.8399 -79.2773 0.0000 0.0000 0.0000 0.0000 0.0000 0.0024 1.2310 0.2171 -8.2881 0.5560 -17.9917 0.0007 0.0002 -17.9988 -0.0007 0.0000 -18.0016 0.0000 -0.0001 0.0000 -5.1372 -1.6664 -17.9253 0.0000 0.0000 -18.0001 -0.0035 -0.0010 -18.0000 0.5905 -5.8773 -5.1793 11.2007 -13.4477 -16.1482 -0.0001 -0.0003 -18.0000 0.0000 0.0000 -17.9993 0.1281 -2.7201 -2.5537 1.3567 -8.1103 -16.9813 0.0001 0.0001 -17.9990 -0.0035 -0.0011 -18.0010 -51.5735 53.9499 -31.5005 6.3507 0.3529 -6.3509 6.3509 0.3527 -6.3510 0.0000 0.0000 0.0000 16.3422 17.0269 -90.3076 180.0000 0.0000 89.9999 63.3112 -21.4168 -64.9830 69.3053 -0.0001 0.0000 0.0000 0.0000 0.0000 -0.0024 -1.2310 0.2172 8.2881 -0.5563 -17.9918 -0.0003 -0.0001 -17.9993 178.0982 0.6179 17.9904 -0.0001 0.0000 0.0001 5.1372 1.6664 -17.9253 0.0000 0.0000 -18.0000 178.0978 0.6179 17.9897 -0.5906 5.8773 -5.1799 -11.2007 13.4479 -16.1470 -0.0002 -0.0001 -17.9992 178.0983 0.6180 17.9922 -0.1281 2.7201 -2.5536 -1.3567 8.1101 -16.9812 0.0000 0.0000 -17.9993 178.0978 0.6179 17.9904 51.5729 -53.9501 -31.5001 -6.3505 -0.3528 -6.3507 -6.3510 -0.3527 -6.3510 25.2673 -32.6163 -94.6500 72.0789 0.0000 0.0826 295.2681 90.0000 0.0000 0.2573 -0.1057 22.3406 1.4068 -62.0667 -156.5353 115.3036 0.0001 0.0000 295.3508 90.0000 0.0000 0.7136 -0.3134 23.7098 
-15.4543 115.3893 -140.3677 8.2580 8.8533 1.2135 0.0000 0.0000 90.0000 0.0000 0.0000 0.0000 0.0000 -22.1056 0.0000 0.0000 0.0000 -90.0000 -58.2338 30.0719 -70.2239 -69.0420 0.0000 0.0000 0.0000 0.0000 0.0000 0.0024 1.2310 0.2171 -8.2881 0.5560 -17.9917 0.0007 0.0003 -17.9988 -0.0008 0.0000 -18.0016 0.0000 -0.0001 0.0000 -5.1372 -1.6664 -17.9253 -0.0001 0.0000 -18.0001 -0.0035 -0.0010 -18.0000 0.5905 -5.8773 -5.1793 11.2007 -13.4477 -16.1482 -0.0001 -0.0003 -18.0000 0.0000 0.0000 -17.9993 0.1281 -2.7201 -2.5537 1.3567 -8.1103 -16.9813 0.0001 0.0000 -17.9990 -0.0035 -0.0011 -18.0010 -51.5735 53.9498 -31.5005 6.3507 0.3529 -6.3509 6.3509 0.3527 -6.3510 0.0000 0.0000 0.0000 19.0687 16.1173 -87.3960 180.0000 0.0000 89.9999 58.8970 -9.6763 -63.4731 57.4517 0.0000 0.0000 0.0000 0.0000 0.0000 -0.0024 -1.2310 0.2172 8.2881 -0.5562 -17.9918 -0.0003 -0.0001 -17.9993 178.0982 0.6179 17.9904 0.0000 0.0000 0.0001 5.1372 1.6664 -17.9253 0.0000 0.0000 -18.0000 178.0978 0.6179 17.9897 -0.5906 5.8773 -5.1799 -11.2007 13.4479 -16.1469 -0.0002 -0.0001 -17.9992 178.0983 0.6180 17.9922 -0.1281 2.7201 -2.5536 -1.3567 8.1101 -16.9812 0.0000 0.0000 -17.9993 178.0978 0.6179 17.9904 51.5729 -53.9501 -31.5001 -6.3505 -0.3528 -6.3507 -6.3509 -0.3527 -6.3509 26.7824 -23.7311 -94.6830 54.0253 0.0000 0.0826 295.2681 90.0000 0.0000 0.0962 -0.0410 23.0947 31.3260 -57.7445 167.2018 111.4989 0.0001 0.0000 295.3508 90.0000 0.0000 1.7068 -0.9569 29.2705 
-16.6006 111.6115 -140.7177 3.8119 12.6562 -1.4584 0.0000 0.0000 90.0000 0.0000 0.0000 0.0000 0.0000 -17.8606 0.0000 0.0000 0.0000 -90.0000 -58.0042 22.5674 -65.6354 -54.0906 0.0000 0.0000 0.0000 0.0000 0.0000 0.0024 1.2310 0.2171 -8.2881 0.5560 -17.9917 0.0007 0.0003 -17.9988 -0.0008 0.0000 -18.0016 0.0000 -0.0001 0.0000 -5.1372 -1.6664 -17.9253 -0.0001 0.0000 -18.0000 -0.0034 -0.0010 -18.0000 0.5905 -5.8773 -5.1793 11.2007 -13.4477 -16.1482 -0.0001 -0.0003 -18.0000 0.0000 0.0000 -17.9993 0.1281 -2.7201 -2.5536 1.3567 -8.1103 -16.9813 0.0001 0.0000 -17.9990 -0.0035 -0.0011 -18.0010 -51.5735 53.9498 -31.5005 6.3507 0.3529 -6.3509 6.3509 0.3527 -6.3510 0.0000 0.0000 0.0000 22.7209 14.0802 -84.3780 180.0000 0.0000 89.9999 50.9941 5.1189 -65.2462 43.0888 -0.0001 0.0000 0.0000 0.0000 0.0000 -0.0024 -1.2310 0.2172 8.2881 -0.5563 -17.9917 -0.0003 -0.0001 -17.9993 178.0982 0.6179 17.9904 -0.0001 0.0000 0.0001 5.1372 1.6664 -17.9253 0.0000 0.0000 -18.0000 178.0978 0.6179 17.9897 -0.5906 5.8773 -5.1799 -11.2007 13.4479 -16.1470 -0.0002 -0.0001 -17.9992 178.0983 0.6180 17.9922 -0.1281 2.7201 -2.5536 -1.3568 8.1101 -16.9812 0.0000 0.0000 -17.9993 178.0978 0.6179 17.9904 51.5729 -53.9501 -31.5000 -6.3505 -0.3528 -6.3507 -6.3510 -0.3527 -6.3510 27.4672 -20.3615 -95.3349 41.0325 0.0000 0.0826 295.2681 90.0000 0.0000 0.0000 0.0000 23.6741 43.9944 -60.0215 151.2730 89.3567 0.0001 -0.0001 295.3508 90.0000 0.0000 1.3995 -0.7681 28.7554 
-16.8827 108.4763 -141.0788 0.0189 16.5607 -4.4539 0.0000 0.0000 90.0000 0.0000 0.0000 0.0000 0.0000 -13.8388 0.0000 0.0000 0.0000 -90.0000 -59.8433 16.2024 -62.7156 -40.1773 0.0000 0.0000 0.0000 0.0000 0.0000 0.0024 1.2310 0.2171 -8.2881 0.5561 -17.9917 0.0007 0.0003 -17.9988 -0.0008 0.0000 -18.0016 0.0000 -0.0001 0.0000 -5.1372 -1.6664 -17.9253 0.0000 0.0000 -18.0001 -0.0035 -0.0010 -18.0000 0.5905 -5.8773 -5.1793 11.2007 -13.4477 -16.1482 -0.0001 -0.0003 -18.0000 0.0000 0.0000 -17.9993 0.1281 -2.7201 -2.5536 1.3567 -8.1103 -16.9813 0.0001 0.0001 -17.9990 -0.0035 -0.0011 -18.0010 -51.5734 53.9498 -31.5004 6.3507 0.3529 -6.3509 6.3509 0.3526 -6.3510 0.0000 0.0000 0.0000 26.5324 11.2260 -81.7834 180.0000 0.0000 89.9999 34.0948 20.3845 -73.3406 31.7123 0.0000 0.0000 0.0000 0.0000 0.0000 -0.0024 -1.2310 0.2172 8.2881 -0.5563 -17.9918 -0.0003 -0.0001 -17.9993 178.0982 0.6179 17.9904 -0.0001 0.0000 0.0001 5.1372 1.6664 -17.9253 0.0000 0.0000 -18.0000 178.0978 0.6179 17.9897 -0.5906 5.8773 -5.1799 -11.2007 13.4479 -16.1470 -0.0002 -0.0001 -17.9993 178.0983 0.6180 17.9922 -0.1281 2.7201 -2.5536 -1.3568 8.1101 -16.9812 0.0000 0.0000 -17.9993 178.0978 0.6179 17.9904 51.5729 -53.9501 -31.5001 -6.3505 -0.3528 -6.3507 -6.3510 -0.3527 -6.3510 27.0766 -22.1791 -96.0449 35.0055 0.0000 0.0826 295.2681 90.0000 0.0000 0.0003 -0.0001 23.9831 56.8192 -67.1544 138.2810 65.2528 0.0000 0.0000 295.3508 90.0000 0.0000 0.8817 -0.4125 25.0717 
-18.1313 105.6241 -141.5333 -3.2205 19.9343 -7.7284 0.0000 0.0000 90.0000 0.0000 0.0000 0.0000 0.0000 -10.7020 0.0000 0.0000 0.0000 -90.0000 -63.0141 13.4751 -60.6360 -31.2541 0.0000 0.0000 0.0000 0.0000 0.0000 0.0024 1.2310 0.2171 -8.2881 0.5560 -17.9917 0.0006 0.0002 -17.9988 -0.0007 0.0000 -18.0016 0.0000 -0.0001 0.0000 -5.1372 -1.6664 -17.9253 -0.0001 0.0000 -18.0001 -0.0035 -0.0010 -18.0000 0.5905 -5.8773 -5.1793 11.2007 -13.4477 -16.1482 -0.0001 -0.0003 -18.0000 0.0000 0.0000 -17.9992 0.1281 -2.7201 -2.5537 1.3567 -8.1103 -16.9813 0.0001 0.0001 -17.9990 -0.0035 -0.0011 -18.0010 -51.5734 53.9498 -31.5004 6.3507 0.3529 -6.3509 6.3509 0.3527 -6.3510 0.0000 0.0000 0.0000 29.8576 8.2026 -79.4624 180.0000 0.0000 89.9999 6.2996 28.8919 -90.9861 27.8731 0.0000 0.0000 0.0000 0.0000 0.0000 -0.0024 -1.2310 0.2172 8.2881 -0.5562 -17.9918 -0.0003 -0.0001 -17.9993 178.0982 0.6179 17.9904 -0.0001 0.0000 0.0001 5.1372 1.6664 -17.9253 0.0000 0.0000 -18.0000 178.0978 0.6179 17.9897 -0.5906 5.8773 -5.1799 -11.2007 13.4479 -16.1470 -0.0002 -0.0001 -17.9993 178.0983 0.6180 17.9922 -0.1281 2.7201 -2.5536 -1.3567 8.1101 -16.9812 0.0000 0.0000 -17.9993 178.0978 0.6179 17.9904 51.5729 -53.9501 -31.5000 -6.3505 -0.3528 -6.3507 -6.3509 -0.3527 -6.3509 25.5593 -27.6447 -96.0822 35.5065 0.0000 0.0826 295.2680 90.0000 0.0000 0.0018 -0.0008 24.0457 76.9029 -73.6435 120.2006 51.4920 0.0000 0.0000 295.3578 90.0000 0.0000 0.5560 -0.2334 22.7756 
-18.1313 105.6241 -141.5333 -3.2205 19.9343 -7.7284 0.0000 0.0000 90.0000 0.0000 0.0000 0.0000 0.0000 -10.7020 0.0000 0.0000 0.0000 -90.0000 -63.0141 13.4751 -60.6360 -31.2541 0.0000 0.0000 0.0000 0.0000 0.0000 0.0024 1.2310 0.2171 -8.2881 0.5560 -17.9917 0.0006 0.0002 -17.9988 -0.0007 0.0000 -18.0016 0.0000 -0.0001 0.0000 -5.1372 -1.6664 -17.9253 -0.0001 0.0000 -18.0001 -0.0035 -0.0010 -18.0000 0.5905 -5.8773 -5.1793 11.2007 -13.4477 -16.1482 -0.0001 -0.0003 -18.0000 0.0000 0.0000 -17.9992 0.1281 -2.7201 -2.5537 1.3567 -8.1103 -16.9813 0.0001 0.0001 -17.9990 -0.0035 -0.0011 -18.0010 -51.5734 53.9498 -31.5004 6.3507 0.3529 -6.3509 6.3509 0.3527 -6.3510 0.0000 0.0000 0.0000 29.8576 8.2026 -79.4624 180.0000 0.0000 89.9999 6.2996 28.8919 -90.9861 27.8731 0.0000 0.0000 0.0000 0.0000 0.0000 -0.0024 -1.2310 0.2172 8.2881 -0.5562 -17.9918 -0.0003 -0.0001 -17.9993 178.0982 0.6179 17.9904 -0.0001 0.0000 0.0001 5.1372 1.6664 -17.9253 0.0000 0.0000 -18.0000 178.0978 0.6179 17.9897 -0.5906 5.8773 -5.1799 -11.2007 13.4479 -16.1470 -0.0002 -0.0001 -17.9993 178.0983 0.6180 17.9922 -0.1281 2.7201 -2.5536 -1.3567 8.1101 -16.9812 0.0000 0.0000 -17.9993 178.0978 0.6179 17.9904 51.5729 -53.9501 -31.5000 -6.3505 -0.3528 -6.3507 -6.3509 -0.3527 -6.3509 25.5593 -27.6447 -96.0822 35.5065 0.0000 0.0826 295.2680 90.0000 0.0000 0.0018 -0.0008 24.0457 76.9029 -73.6435 120.2006 51.4920 0.0000 0.0000 295.3578 90.0000 0.0000 0.5560 -0.2334 22.7756 
-17.0570 107.8230 -141.1698 -0.8543 17.4860 -5.2364 0.0000 0.0000 90.0000 0.0000 0.0000 0.0000 0.0000 -12.9011 0.0000 0.0000 0.0000 -90.0000 -60.4198 14.9044 -62.0820 -37.1617 0.0000 0.0000 0.0000 0.0000 0.0000 0.0024 1.2310 0.2171 -8.2881 0.5560 -17.9917 0.0007 0.0002 -17.9988 -0.0008 0.0000 -18.0016 0.0000 0.0000 0.0000 -5.1372 -1.6664 -17.9253 0.0000 0.0000 -18.0000 -0.0035 -0.0010 -18.0000 0.5905 -5.8773 -5.1793 11.2007 -13.4477 -16.1482 -0.0001 -0.0003 -18.0000 0.0000 0.0000 -17.9993 0.1281 -2.7201 -2.5537 1.3567 -8.1103 -16.9813 0.0001 0.0001 -17.9990 -0.0035 -0.0011 -18.0010 -51.5735 53.9499 -31.5005 6.3507 0.3529 -6.3509 6.3509 0.3526 -6.3510 0.0000 0.0000 0.0000 27.4453 10.4613 -81.2124 180.0000 0.0000 89.9999 27.7541 23.6498 -77.0262 29.8056 0.0000 0.0000 0.0000 0.0000 0.0000 -0.0024 -1.2310 0.2172 8.2881 -0.5563 -17.9918 -0.0003 -0.0001 -17.9993 178.0982 0.6179 17.9904 0.0000 0.0000 0.0001 5.1372 1.6664 -17.9253 0.0000 0.0000 -18.0000 178.0978 0.6179 17.9897 -0.5906 5.8773 -5.1799 -11.2007 13.4479 -16.1470 -0.0002 -0.0001 -17.9992 178.0983 0.6180 17.9922 -0.1281 2.7201 -2.5536 -1.3567 8.1101 -16.9812 0.0000 0.0000 -17.9993 178.0978 0.6179 17.9904 51.5729 -53.9501 -31.5001 -6.3505 -0.3528 -6.3507 -6.3510 -0.3527 -6.3510 26.8880 -23.1204 -96.1581 34.2844 0.0000 0.0826 295.2680 90.0000 0.0000 0.0006 -0.0002 24.0319 61.0717 -69.0297 134.2226 60.4147 0.0000 -0.0001 295.3508 90.0000 0.0000 0.7757 -0.3496 24.2604 
